<svg xmlns="http://www.w3.org/2000/svg" xmlns:svg="http://www.w3.org/2000/svg" xmlns:xlink="http://www.w3.org/1999/xlink" id="svg2" width="30" height="31" version="1.1"><metadata id="metadata18"/><defs id="defs4"><linearGradient id="linearGradient3846" x1="0" x2="0" y1="31" y2="2" gradientTransform="matrix(1.0476191,0,0,1,31.952389,-1)" gradientUnits="userSpaceOnUse" xlink:href="#linearGradient3839-64"/><filter id="filter3846" width="1.196" height="1.24" x="-.098" y="-.12"><feGaussianBlur id="feGaussianBlur3848" stdDeviation="1.8"/></filter><linearGradient id="linearGradient3839-64"><stop style="stop-color:#eff0f1;stop-opacity:1" id="stop3842-0" offset="0"/><stop style="stop-color:#f6f7f8;stop-opacity:1" id="stop3844-1" offset="1"/></linearGradient></defs><rect style="opacity:.2;fill:#000;fill-opacity:1;stroke:#4080fb;stroke-width:0;stroke-linecap:butt;stroke-linejoin:miter;stroke-miterlimit:4;stroke-opacity:.84555981;stroke-dasharray:none;stroke-dashoffset:0;filter:url(#filter3846)" id="rect3036" width="44" height="36" x="-25" y="0" ry="3" transform="matrix(0.98784195,0,0,0.86090878,38.963526,4.7191259)"/><g id="g3863" transform="translate(2.9999999,1)"><rect id="rect3837" width="44" height="34" x="11" y="1" ry="2" style="fill:url(#linearGradient3846);fill-opacity:1;stroke:#4080fb;stroke-width:0;stroke-linecap:butt;stroke-linejoin:miter;stroke-miterlimit:4;stroke-opacity:.84555981;stroke-dasharray:none;stroke-dashoffset:0"/><path id="rect3978" d="M 14,0 C 12.338,0 10.999999,1.338 10.999999,3 L 11,26 55.000001,26 55,3 C 55,1.338 53.662,0 52,0 z m 0,1 38,0 c 1.108,0 2,0.892 2,2 l 10e-7,23 -42,0 L 12,3 c 0,-1.108 0.892,-2 2,-2 z" style="fill:#b9b9b9;fill-opacity:1;stroke:#4080fb;stroke-width:0;stroke-linecap:butt;stroke-linejoin:miter;stroke-miterlimit:4;stroke-opacity:.84555981;stroke-dasharray:none;stroke-dashoffset:0"/><path id="rect3837-6" d="m 14,1 c -1.108,0 -2,0.892 -2,2 l 0,1 c 0,-1.108 0.892,-2 2,-2 l 38,0 c 1.108,0 2,0.892 2,2 L 54,3 C 54,1.892 53.108,1 52,1 L 14,1 z" style="fill:#fff;fill-opacity:1;stroke:#4080fb;stroke-width:0;stroke-linecap:butt;stroke-linejoin:miter;stroke-miterlimit:4;stroke-opacity:.84555981;stroke-dasharray:none;stroke-dashoffset:0"/><rect id="rect3836" width="3" height="1" x="9" y="28" ry="0" style="fill:#eff0f1;fill-opacity:1;stroke:#4080fb;stroke-width:0;stroke-linecap:butt;stroke-linejoin:miter;stroke-miterlimit:4;stroke-opacity:.84555981;stroke-dasharray:none;stroke-dashoffset:0"/><path style="fill:#b9b9b9;fill-opacity:1;stroke:#fff;stroke-width:0;stroke-linejoin:round;stroke-miterlimit:4;stroke-opacity:1;stroke-dasharray:none;stroke-dashoffset:0;display:inline" id="path3884-95" d="m 9,29 0,-1 c 1.10457,0 2,-0.8954 2,-2 l 1,0 c 0,1.6569 -1.34315,3 -3,3 z"/><rect id="rect3836-4" width="3" height="1" x="54" y="28" ry="0" style="fill:#eff0f1;fill-opacity:1;stroke:#4080fb;stroke-width:0;stroke-linecap:butt;stroke-linejoin:miter;stroke-miterlimit:4;stroke-opacity:.84555981;stroke-dasharray:none;stroke-dashoffset:0"/><path style="fill:#b9b9b9;fill-opacity:1;stroke:#fff;stroke-width:0;stroke-linejoin:round;stroke-miterlimit:4;stroke-opacity:1;stroke-dasharray:none;stroke-dashoffset:0;display:inline" id="path3884-95-0" d="m 57,29 0,-1 c -1.10457,0 -2,-0.8954 -2,-2 l -1,0 c 0,1.6569 1.34315,3 3,3 z"/></g></svg>